General
Complete name                    : Varannan.vecka.2005.m4v
Format                           : MPEG-4
Codec ID                         : mp42
File size                        : 954 MiB
Duration                         : 1h 32mn
Overall bit rate                 : 1 435 Kbps
Writing application              : HandBrake svn3446 2010071801

Video

Format                           : AVC
Duration                         : 1h 32mn
Bit rate                         : 1 136 Kbps
Width                            : 720 pixels
Height                           : 554 pixels
Display aspect ratio             : 16:9
Stream size                      : 755 MiB (79%)
Writing library                  : x264 core 104


Audio

Format                           : AAC
Duration                         : 1h 32mn
Maximum bit rate                 : 388 Kbps
Channel(s)                       : 2 channels
Channel positions                : Front: L R
Sampling rate                    : 48.0 KHz
Stream size                      : 192 MiB (20%)
Language                         : Swedish


Text #1

Format                           : VobSub
Language                         : Swedish